<svg width="1280" height="884" viewBox="0 0 1280 884" fill="none" xmlns="http://www.w3.org/2000/svg">
<g clip-path="url(#clip0_200_38)">
<rect width="1280" height="884" fill="white"/>
<path d="M240.347 495.442V464.45H258.33V495.442C258.33 510.364 261.264 522.033 267.13 530.451C272.997 538.996 281.988 543.268 294.104 543.268C305.2 543.268 313.873 538.677 320.122 529.494C326.499 520.311 329.687 507.621 329.687 491.424C329.687 474.589 325.67 460.943 317.635 450.485C309.728 440.154 299.27 434.989 286.261 434.989V411.459C304.116 411.459 318.974 418.728 330.835 433.267C342.823 447.934 348.818 467.32 348.818 491.424C348.818 514.381 343.908 532.491 334.087 545.755C324.394 559.146 311.577 565.842 295.635 565.842C283.646 565.842 273.698 562.717 265.791 556.468C258.011 550.219 252.527 541.355 249.339 529.877C242.069 557.297 226.255 571.007 201.895 571.007C183.785 571.007 169.819 564.057 159.999 550.155C150.179 536.254 145.269 516.804 145.269 491.807C145.269 465.917 151.135 445.32 162.869 430.015C174.602 414.838 191.054 407.25 212.226 407.25V430.78C196.921 430.78 185.06 436.265 176.643 447.233C168.225 458.201 164.017 473.059 164.017 491.807C164.017 510.045 167.396 523.946 174.156 533.512C180.915 543.077 190.48 547.859 202.852 547.859C215.35 547.859 224.724 542.949 230.974 533.129C237.223 523.309 240.347 510.746 240.347 495.442Z" fill="black"/>
<path d="M197.351 429.736V301.321H302.189V429.736H286.765V315.492H212.776V429.736H197.351Z" fill="black"/>
<path d="M81.1744 297.262V266.27H99.1571V297.262C99.1571 312.183 102.09 323.853 107.957 332.27C113.824 340.815 122.815 345.088 134.931 345.088C146.027 345.088 154.699 340.497 160.949 331.314C167.326 322.131 170.514 309.441 170.514 293.244C170.514 276.409 166.497 262.763 158.462 252.305C150.555 241.974 140.096 236.809 127.088 236.809L127.088 213.278C144.943 213.278 159.801 220.548 171.662 235.087C183.65 249.754 189.645 269.14 189.645 293.244C189.645 316.201 184.734 334.311 174.914 347.575C165.221 360.966 152.404 367.662 136.462 367.662C124.473 367.662 114.525 364.537 106.618 358.288C98.8383 352.039 93.3542 343.175 90.1657 331.697C82.8961 359.117 67.0815 372.827 42.722 372.827C24.6117 372.827 10.6464 365.876 0.826048 351.975C-8.9943 338.073 -13.9045 318.624 -13.9045 293.627C-13.9045 267.737 -8.03778 247.139 3.69563 231.835C15.429 216.658 31.8813 209.07 53.0525 209.07V232.6C37.748 232.6 25.8871 238.084 17.4696 249.053C9.05219 260.021 4.84346 274.879 4.84346 293.627C4.84346 311.865 8.2232 325.766 14.9827 335.331C21.7421 344.897 31.3074 349.679 43.6785 349.679C56.1771 349.679 65.5511 344.769 71.8004 334.949C78.0497 325.128 81.1744 312.566 81.1744 297.262Z" fill="black"/>
<path d="M38.0681 232V103.585H142.907V232H127.482V117.756H53.4929V232H38.0681Z" fill="black"/>
<path d="M561.914 495.442V464.45H579.897V495.442C579.897 510.364 582.83 522.033 588.697 530.451C594.563 538.996 603.555 543.268 615.671 543.268C626.766 543.268 635.439 538.677 641.688 529.494C648.065 520.311 651.254 507.621 651.254 491.424C651.254 474.589 647.236 460.943 639.201 450.485C631.294 440.154 620.836 434.989 607.827 434.989V411.459C625.682 411.459 640.54 418.728 652.401 433.267C664.39 447.934 670.384 467.32 670.384 491.424C670.384 514.381 665.474 532.491 655.654 545.755C645.961 559.146 633.143 565.842 617.201 565.842C605.213 565.842 595.265 562.717 587.358 556.468C579.578 550.219 574.094 541.355 570.905 529.877C563.636 557.297 547.821 571.007 523.461 571.007C505.351 571.007 491.386 564.057 481.566 550.155C471.745 536.254 466.835 516.804 466.835 491.807C466.835 465.917 472.702 445.32 484.435 430.015C496.169 414.838 512.621 407.25 533.792 407.25V430.78C518.488 430.78 506.627 436.265 498.209 447.233C489.792 458.201 485.583 473.059 485.583 491.807C485.583 510.045 488.963 523.946 495.722 533.512C502.482 543.077 512.047 547.859 524.418 547.859C536.917 547.859 546.291 542.949 552.54 533.129C558.789 523.309 561.914 510.746 561.914 495.442Z" fill="black"/>
<path d="M518.917 429.736V301.321H623.756V429.736H608.331V315.492H534.342V429.736H518.917Z" fill="black"/>
<path d="M404.457 349.073V318.082H422.44V349.073C422.44 363.995 425.373 375.665 431.24 384.082C437.107 392.627 446.098 396.899 458.214 396.899C469.31 396.899 477.982 392.308 484.232 383.125C490.609 373.943 493.797 361.253 493.797 345.056C493.797 328.221 489.78 314.574 481.745 304.116C473.837 293.786 463.379 288.62 450.371 288.62V265.09C468.226 265.09 483.084 272.36 494.945 286.899C506.933 301.566 512.928 320.951 512.928 345.056C512.928 368.012 508.017 386.123 498.197 399.386C488.504 412.778 475.687 419.474 459.745 419.474C447.756 419.474 437.808 416.349 429.901 410.1C422.121 403.85 416.637 394.986 413.449 383.508C406.179 410.929 390.365 424.639 366.005 424.639C347.895 424.639 333.929 417.688 324.109 403.786C314.289 389.885 309.378 370.436 309.378 345.438C309.378 319.548 315.245 298.951 326.979 283.647C338.712 268.47 355.164 260.881 376.335 260.881V284.412C361.031 284.412 349.17 289.896 340.753 300.864C332.335 311.832 328.126 326.69 328.126 345.438C328.126 363.676 331.506 377.578 338.266 387.143C345.025 396.708 354.59 401.491 366.961 401.491C379.46 401.491 388.834 396.581 395.083 386.76C401.333 376.94 404.457 364.378 404.457 349.073Z" fill="black"/>
<path d="M361.461 283.368V154.953H466.299V283.368H450.875V169.124H376.885V283.368H361.461Z" fill="black"/>
<path d="M557.479 780.416V749.425H575.461V780.416C575.461 795.338 578.395 807.008 584.261 815.425C590.128 823.97 599.119 828.243 611.235 828.243C622.331 828.243 631.004 823.651 637.253 814.469C643.63 805.286 646.818 792.596 646.818 776.399C646.818 759.564 642.801 745.918 634.766 735.46C626.859 725.129 616.401 719.964 603.392 719.964V696.433C621.247 696.433 636.105 703.703 647.966 718.242C659.955 732.909 665.949 752.294 665.949 776.399C665.949 799.356 661.039 817.466 651.218 830.73C641.525 844.121 628.708 850.817 612.766 850.817C600.777 850.817 590.83 847.692 582.922 841.443C575.142 835.193 569.658 826.33 566.47 814.851C559.2 842.272 543.386 855.982 519.026 855.982C500.916 855.982 486.951 849.031 477.13 835.13C467.31 821.228 462.4 801.779 462.4 776.782C462.4 750.891 468.266 730.294 480 714.99C491.733 699.813 508.186 692.224 529.357 692.224V715.755C514.052 715.755 502.191 721.239 493.774 732.207C485.356 743.176 481.148 758.034 481.148 776.782C481.148 795.019 484.527 808.921 491.287 818.486C498.046 828.051 507.612 832.834 519.983 832.834C532.481 832.834 541.855 827.924 548.105 818.104C554.354 808.283 557.479 795.721 557.479 780.416Z" fill="black"/>
<path d="M514.482 714.711V586.296H619.321V714.711H603.896V600.467H529.907V714.711H514.482Z" fill="black"/>
<path d="M400.022 634.048V603.056H418.005V634.048C418.005 648.969 420.938 660.639 426.805 669.057C432.671 677.602 441.663 681.874 453.779 681.874C464.874 681.874 473.547 677.283 479.796 668.1C486.173 658.917 489.361 646.227 489.361 630.03C489.361 613.195 485.344 599.549 477.309 589.091C469.402 578.76 458.944 573.595 445.935 573.595V550.065C463.79 550.065 478.648 557.334 490.509 571.873C502.498 586.54 508.492 605.926 508.492 630.03C508.492 652.987 503.582 671.097 493.762 684.361C484.069 697.752 471.251 704.448 455.309 704.448C443.321 704.448 433.373 701.323 425.465 695.074C417.686 688.825 412.202 679.961 409.013 668.483C401.744 695.903 385.929 709.613 361.569 709.613C343.459 709.613 329.494 702.663 319.673 688.761C309.853 674.86 304.943 655.41 304.943 630.413C304.943 604.523 310.81 583.926 322.543 568.621C334.276 553.444 350.729 545.856 371.9 545.856V569.386C356.595 569.386 344.734 574.87 336.317 585.839C327.9 596.807 323.691 611.665 323.691 630.413C323.691 648.651 327.071 662.552 333.83 672.117C340.59 681.683 350.155 686.465 362.526 686.465C375.025 686.465 384.399 681.555 390.648 671.735C396.897 661.915 400.022 649.352 400.022 634.048Z" fill="black"/>
<path d="M357.025 568.342V439.927H461.864V568.342H446.439V454.098H372.45V568.342H357.025Z" fill="black"/>
<path d="M879.045 780.416V749.425H897.028V780.416C897.028 795.338 899.961 807.008 905.828 815.425C911.695 823.97 920.686 828.243 932.802 828.243C943.898 828.243 952.57 823.651 958.82 814.469C965.197 805.286 968.385 792.596 968.385 776.399C968.385 759.564 964.368 745.918 956.333 735.46C948.425 725.129 937.967 719.964 924.959 719.964V696.433C942.814 696.433 957.672 703.703 969.533 718.242C981.521 732.909 987.515 752.294 987.515 776.399C987.515 799.356 982.605 817.466 972.785 830.73C963.092 844.121 950.275 850.817 934.333 850.817C922.344 850.817 912.396 847.692 904.489 841.443C896.709 835.193 891.225 826.33 888.037 814.851C880.767 842.272 864.952 855.982 840.593 855.982C822.483 855.982 808.517 849.031 798.697 835.13C788.877 821.228 783.966 801.779 783.966 776.782C783.966 750.891 789.833 730.294 801.566 714.99C813.3 699.813 829.752 692.224 850.923 692.224V715.755C835.619 715.755 823.758 721.239 815.34 732.207C806.923 743.176 802.714 758.034 802.714 776.782C802.714 795.019 806.094 808.921 812.854 818.486C819.613 828.051 829.178 832.834 841.549 832.834C854.048 832.834 863.422 827.924 869.671 818.104C875.921 808.283 879.045 795.721 879.045 780.416Z" fill="black"/>
<path d="M836.049 714.711V586.296H940.887V714.711H925.463V600.467H851.474V714.711H836.049Z" fill="black"/>
<path d="M721.588 634.048V603.056H739.571V634.048C739.571 648.969 742.505 660.639 748.371 669.057C754.238 677.602 763.229 681.874 775.345 681.874C786.441 681.874 795.114 677.283 801.363 668.1C807.74 658.917 810.928 646.227 810.928 630.03C810.928 613.195 806.911 599.549 798.876 589.091C790.969 578.76 780.511 573.595 767.502 573.595V550.065C785.357 550.065 800.215 557.334 812.076 571.873C824.064 586.54 830.059 605.926 830.059 630.03C830.059 652.987 825.149 671.097 815.328 684.361C805.635 697.752 792.818 704.448 776.876 704.448C764.887 704.448 754.939 701.323 747.032 695.074C739.252 688.825 733.768 679.961 730.58 668.483C723.31 695.903 707.496 709.613 683.136 709.613C665.026 709.613 651.06 702.663 641.24 688.761C631.42 674.86 626.51 655.41 626.51 630.413C626.51 604.523 632.376 583.926 644.11 568.621C655.843 553.444 672.295 545.856 693.467 545.856V569.386C678.162 569.386 666.301 574.87 657.884 585.839C649.466 596.807 645.258 611.665 645.258 630.413C645.258 648.651 648.637 662.552 655.397 672.117C662.156 681.683 671.721 686.465 684.093 686.465C696.591 686.465 705.965 681.555 712.214 671.735C718.464 661.915 721.588 649.352 721.588 634.048Z" fill="black"/>
<path d="M678.592 568.342V439.927H783.431V568.342H768.006V454.098H694.017V568.342H678.592Z" fill="black"/>
<path d="M240.347 495.442V464.45H258.33V495.442C258.33 510.364 261.264 522.033 267.13 530.451C272.997 538.996 281.988 543.268 294.104 543.268C305.2 543.268 313.873 538.677 320.122 529.494C326.499 520.311 329.687 507.621 329.687 491.424C329.687 474.589 325.67 460.943 317.635 450.485C309.728 440.154 299.27 434.989 286.261 434.989V411.459C304.116 411.459 318.974 418.728 330.835 433.267C342.823 447.934 348.818 467.32 348.818 491.424C348.818 514.381 343.908 532.491 334.087 545.755C324.394 559.146 311.577 565.842 295.635 565.842C283.646 565.842 273.698 562.717 265.791 556.468C258.011 550.219 252.527 541.355 249.339 529.877C242.069 557.297 226.255 571.007 201.895 571.007C183.785 571.007 169.819 564.057 159.999 550.155C150.179 536.254 145.269 516.804 145.269 491.807C145.269 465.917 151.135 445.32 162.869 430.015C174.602 414.838 191.054 407.25 212.226 407.25V430.78C196.921 430.78 185.06 436.265 176.643 447.233C168.225 458.201 164.017 473.059 164.017 491.807C164.017 510.045 167.396 523.946 174.156 533.512C180.915 543.077 190.48 547.859 202.852 547.859C215.35 547.859 224.724 542.949 230.974 533.129C237.223 523.309 240.347 510.746 240.347 495.442Z" fill="black"/>
<path d="M197.351 429.736V301.321H302.189V429.736H286.765V315.492H212.776V429.736H197.351Z" fill="black"/>
<path d="M561.914 495.442V464.45H579.897V495.442C579.897 510.364 582.83 522.033 588.697 530.451C594.563 538.996 603.555 543.268 615.671 543.268C626.766 543.268 635.439 538.677 641.688 529.494C648.065 520.311 651.254 507.621 651.254 491.424C651.254 474.589 647.236 460.943 639.201 450.485C631.294 440.154 620.836 434.989 607.827 434.989V411.459C625.682 411.459 640.54 418.728 652.401 433.267C664.39 447.934 670.384 467.32 670.384 491.424C670.384 514.381 665.474 532.491 655.654 545.755C645.961 559.146 633.143 565.842 617.201 565.842C605.213 565.842 595.265 562.717 587.358 556.468C579.578 550.219 574.094 541.355 570.905 529.877C563.636 557.297 547.821 571.007 523.461 571.007C505.351 571.007 491.386 564.057 481.566 550.155C471.745 536.254 466.835 516.804 466.835 491.807C466.835 465.917 472.702 445.32 484.435 430.015C496.169 414.838 512.621 407.25 533.792 407.25V430.78C518.488 430.78 506.627 436.265 498.209 447.233C489.792 458.201 485.583 473.059 485.583 491.807C485.583 510.045 488.963 523.946 495.722 533.512C502.482 543.077 512.047 547.859 524.418 547.859C536.917 547.859 546.291 542.949 552.54 533.129C558.789 523.309 561.914 510.746 561.914 495.442Z" fill="black"/>
<path d="M518.917 429.736V301.321H623.756V429.736H608.331V315.492H534.342V429.736H518.917Z" fill="black"/>
<path d="M404.457 349.073V318.082H422.44V349.073C422.44 363.995 425.373 375.665 431.24 384.082C437.107 392.627 446.098 396.899 458.214 396.899C469.31 396.899 477.982 392.308 484.232 383.125C490.609 373.943 493.797 361.253 493.797 345.056C493.797 328.221 489.78 314.574 481.745 304.116C473.837 293.786 463.379 288.62 450.371 288.62V265.09C468.226 265.09 483.084 272.36 494.945 286.899C506.933 301.566 512.928 320.951 512.928 345.056C512.928 368.012 508.017 386.123 498.197 399.386C488.504 412.778 475.687 419.474 459.745 419.474C447.756 419.474 437.808 416.349 429.901 410.1C422.121 403.85 416.637 394.986 413.449 383.508C406.179 410.929 390.365 424.639 366.005 424.639C347.895 424.639 333.929 417.688 324.109 403.786C314.289 389.885 309.378 370.436 309.378 345.438C309.378 319.548 315.245 298.951 326.979 283.647C338.712 268.47 355.164 260.881 376.335 260.881V284.412C361.031 284.412 349.17 289.896 340.753 300.864C332.335 311.832 328.126 326.69 328.126 345.438C328.126 363.676 331.506 377.578 338.266 387.143C345.025 396.708 354.59 401.491 366.961 401.491C379.46 401.491 388.834 396.581 395.083 386.76C401.333 376.94 404.457 364.378 404.457 349.073Z" fill="black"/>
<path d="M361.461 283.368V154.953H466.299V283.368H450.875V169.124H376.885V283.368H361.461Z" fill="black"/>
<path d="M890.134 495.442V464.45H908.116V495.442C908.116 510.364 911.05 522.033 916.916 530.451C922.783 538.996 931.774 543.268 943.89 543.268C954.986 543.268 963.659 538.677 969.908 529.494C976.285 520.311 979.473 507.621 979.473 491.424C979.473 474.589 975.456 460.943 967.421 450.485C959.514 440.154 949.056 434.989 936.047 434.989V411.459C953.902 411.459 968.76 418.728 980.621 433.267C992.61 447.934 998.604 467.32 998.604 491.424C998.604 514.381 993.694 532.491 983.873 545.755C974.181 559.146 961.363 565.842 945.421 565.842C933.432 565.842 923.485 562.717 915.577 556.468C907.797 550.219 902.313 541.355 899.125 529.877C891.855 557.297 876.041 571.007 851.681 571.007C833.571 571.007 819.606 564.057 809.785 550.155C799.965 536.254 795.055 516.804 795.055 491.807C795.055 465.917 800.921 445.32 812.655 430.015C824.388 414.838 840.841 407.25 862.012 407.25V430.78C846.707 430.78 834.846 436.265 826.429 447.233C818.011 458.201 813.803 473.059 813.803 491.807C813.803 510.045 817.182 523.946 823.942 533.512C830.701 543.077 840.267 547.859 852.638 547.859C865.136 547.859 874.51 542.949 880.76 533.129C887.009 523.309 890.134 510.746 890.134 495.442Z" fill="black"/>
<path d="M847.137 429.736V301.321H951.976V429.736H936.551V315.492H862.562V429.736H847.137Z" fill="black"/>
<path d="M732.677 349.073V318.082H750.66V349.073C750.66 363.995 753.593 375.665 759.46 384.082C765.327 392.627 774.318 396.899 786.434 396.899C797.53 396.899 806.202 392.308 812.451 383.125C818.828 373.943 822.017 361.253 822.017 345.056C822.017 328.221 817.999 314.574 809.965 304.116C802.057 293.786 791.599 288.62 778.59 288.62V265.09C796.446 265.09 811.304 272.36 823.165 286.899C835.153 301.566 841.147 320.951 841.147 345.056C841.147 368.012 836.237 386.123 826.417 399.386C816.724 412.778 803.907 419.474 787.964 419.474C775.976 419.474 766.028 416.349 758.121 410.1C750.341 403.85 744.857 394.986 741.668 383.508C734.399 410.929 718.584 424.639 694.225 424.639C676.114 424.639 662.149 417.688 652.329 403.786C642.508 389.885 637.598 370.436 637.598 345.438C637.598 319.548 643.465 298.951 655.198 283.647C666.932 268.47 683.384 260.881 704.555 260.881V284.412C689.251 284.412 677.39 289.896 668.972 300.864C660.555 311.832 656.346 326.69 656.346 345.438C656.346 363.676 659.726 377.578 666.485 387.143C673.245 396.708 682.81 401.491 695.181 401.491C707.68 401.491 717.054 396.581 723.303 386.76C729.552 376.94 732.677 364.378 732.677 349.073Z" fill="black"/>
<path d="M689.68 283.368V154.953H794.519V283.368H779.094V169.124H705.105V283.368H689.68Z" fill="black"/>
<path d="M1211.7 495.442V464.45H1229.68V495.442C1229.68 510.364 1232.62 522.033 1238.48 530.451C1244.35 538.996 1253.34 543.268 1265.46 543.268C1276.55 543.268 1285.23 538.677 1291.47 529.494C1297.85 520.311 1301.04 507.621 1301.04 491.424C1301.04 474.589 1297.02 460.943 1288.99 450.485C1281.08 440.154 1270.62 434.989 1257.61 434.989V411.459C1275.47 411.459 1290.33 418.728 1302.19 433.267C1314.18 447.934 1320.17 467.32 1320.17 491.424C1320.17 514.381 1315.26 532.491 1305.44 545.755C1295.75 559.146 1282.93 565.842 1266.99 565.842C1255 565.842 1245.05 562.717 1237.14 556.468C1229.36 550.219 1223.88 541.355 1220.69 529.877C1213.42 557.297 1197.61 571.007 1173.25 571.007C1155.14 571.007 1141.17 564.057 1131.35 550.155C1121.53 536.254 1116.62 516.804 1116.62 491.807C1116.62 465.917 1122.49 445.32 1134.22 430.015C1145.96 414.838 1162.41 407.25 1183.58 407.25V430.78C1168.27 430.78 1156.41 436.265 1148 447.233C1139.58 458.201 1135.37 473.059 1135.37 491.807C1135.37 510.045 1138.75 523.946 1145.51 533.512C1152.27 543.077 1161.83 547.859 1174.2 547.859C1186.7 547.859 1196.08 542.949 1202.33 533.129C1208.58 523.309 1211.7 510.746 1211.7 495.442Z" fill="black"/>
<path d="M1168.7 429.736V301.321H1273.54V429.736H1258.12V315.492H1184.13V429.736H1168.7Z" fill="black"/>
<path d="M1211.7 495.442V464.45H1229.68V495.442C1229.68 510.364 1232.62 522.033 1238.48 530.451C1244.35 538.996 1253.34 543.268 1265.46 543.268C1276.55 543.268 1285.23 538.677 1291.47 529.494C1297.85 520.311 1301.04 507.621 1301.04 491.424C1301.04 474.589 1297.02 460.943 1288.99 450.485C1281.08 440.154 1270.62 434.989 1257.61 434.989V411.459C1275.47 411.459 1290.33 418.728 1302.19 433.267C1314.18 447.934 1320.17 467.32 1320.17 491.424C1320.17 514.381 1315.26 532.491 1305.44 545.755C1295.75 559.146 1282.93 565.842 1266.99 565.842C1255 565.842 1245.05 562.717 1237.14 556.468C1229.36 550.219 1223.88 541.355 1220.69 529.877C1213.42 557.297 1197.61 571.007 1173.25 571.007C1155.14 571.007 1141.17 564.057 1131.35 550.155C1121.53 536.254 1116.62 516.804 1116.62 491.807C1116.62 465.917 1122.49 445.32 1134.22 430.015C1145.96 414.838 1162.41 407.25 1183.58 407.25V430.78C1168.27 430.78 1156.41 436.265 1148 447.233C1139.58 458.201 1135.37 473.059 1135.37 491.807C1135.37 510.045 1138.75 523.946 1145.51 533.512C1152.27 543.077 1161.83 547.859 1174.2 547.859C1186.7 547.859 1196.08 542.949 1202.33 533.129C1208.58 523.309 1211.7 510.746 1211.7 495.442Z" fill="black"/>
<path d="M1168.7 429.736V301.321H1273.54V429.736H1258.12V315.492H1184.13V429.736H1168.7Z" fill="black"/>
<path d="M896.787 202.705V171.713H914.77V202.705C914.77 217.627 917.703 229.296 923.57 237.714C929.436 246.259 938.428 250.531 950.544 250.531C961.64 250.531 970.312 245.94 976.561 236.757C982.938 227.575 986.127 214.885 986.127 198.687C986.127 181.853 982.109 168.206 974.074 157.748C966.167 147.418 955.709 142.252 942.7 142.252V118.722C960.555 118.722 975.414 125.991 987.274 140.531C999.263 155.197 1005.26 174.583 1005.26 198.687C1005.26 221.644 1000.35 239.754 990.527 253.018C980.834 266.41 968.016 273.105 952.074 273.105C940.086 273.105 930.138 269.981 922.231 263.731C914.451 257.482 908.967 248.618 905.778 237.14C898.509 264.56 882.694 278.271 858.335 278.271C840.224 278.271 826.259 271.32 816.439 257.418C806.618 243.517 801.708 224.067 801.708 199.07C801.708 173.18 807.575 152.583 819.308 137.278C831.042 122.101 847.494 114.513 868.665 114.513V138.044C853.361 138.044 841.5 143.528 833.082 154.496C824.665 165.464 820.456 180.322 820.456 199.07C820.456 217.308 823.836 231.209 830.595 240.775C837.355 250.34 846.92 255.123 859.291 255.123C871.79 255.123 881.164 250.212 887.413 240.392C893.662 230.572 896.787 218.009 896.787 202.705Z" fill="black"/>
<path d="M853.79 137V8.58511H958.629V137H943.204V22.7559H869.215V137H853.79Z" fill="black"/>
<path d="M1054.24 349.073V318.082H1072.23V349.073C1072.23 363.995 1075.16 375.665 1081.03 384.082C1086.89 392.627 1095.88 396.899 1108 396.899C1119.1 396.899 1127.77 392.308 1134.02 383.125C1140.39 373.943 1143.58 361.253 1143.58 345.056C1143.58 328.221 1139.57 314.574 1131.53 304.116C1123.62 293.786 1113.17 288.62 1100.16 288.62V265.09C1118.01 265.09 1132.87 272.36 1144.73 286.899C1156.72 301.566 1162.71 320.951 1162.71 345.056C1162.71 368.012 1157.8 386.123 1147.98 399.386C1138.29 412.778 1125.47 419.474 1109.53 419.474C1097.54 419.474 1087.59 416.349 1079.69 410.1C1071.91 403.85 1066.42 394.986 1063.23 383.508C1055.97 410.929 1040.15 424.639 1015.79 424.639C997.681 424.639 983.715 417.688 973.895 403.786C964.075 389.885 959.165 370.436 959.165 345.438C959.165 319.548 965.031 298.951 976.765 283.647C988.498 268.47 1004.95 260.881 1026.12 260.881V284.412C1010.82 284.412 998.956 289.896 990.539 300.864C982.121 311.832 977.913 326.69 977.913 345.438C977.913 363.676 981.292 377.578 988.052 387.143C994.811 396.708 1004.38 401.491 1016.75 401.491C1029.25 401.491 1038.62 396.581 1044.87 386.76C1051.12 376.94 1054.24 364.378 1054.24 349.073Z" fill="black"/>
<path d="M1011.25 283.368V154.953H1116.09V283.368H1100.66V169.124H1026.67V283.368H1011.25Z" fill="black"/>
<g filter="url(#filter0_d_200_38)">
<path d="M526.125 420.565V315.224V306.353H619.823V315.224V425.554C630.357 425.554 643.663 433.316 653.643 450.504C664 468.341 669.721 510.936 649.762 539.766C633.794 562.83 589.33 556.399 584.34 536.439L571.338 482.807C572.527 490.48 568.404 517.297 563.826 533.113C557.727 554.181 539.431 567.487 510.601 561.389C481.771 555.29 467.356 491.531 479.554 456.602C489.311 428.659 517.254 416.868 526.125 420.565Z" fill="black"/>
<path d="M526.125 420.565V315.224V306.353H619.823V315.224V425.554C630.357 425.554 643.663 433.316 653.643 450.504C664 468.341 669.721 510.936 649.762 539.766C633.794 562.83 589.33 556.399 584.34 536.439L571.338 482.807C572.527 490.48 568.404 517.297 563.826 533.113C557.727 554.181 539.431 567.487 510.601 561.389C481.771 555.29 467.356 491.531 479.554 456.602C489.311 428.659 517.254 416.868 526.125 420.565Z" stroke="black" stroke-width="1.10885"/>
</g>
<path d="M-45.8256 667.262V636.27H-27.8429V667.262C-27.8429 682.183 -24.9095 693.853 -19.0428 702.27C-13.1761 710.815 -4.18477 715.088 7.93125 715.088C19.027 715.088 27.6995 710.497 33.9488 701.314C40.3257 692.131 43.5141 679.441 43.5141 663.244C43.5141 646.409 39.4967 632.763 31.4618 622.305C23.5545 611.974 13.0965 606.809 0.0877194 606.809L0.0877194 583.278C17.9429 583.278 32.801 590.548 44.6619 605.087C56.6504 619.754 62.6446 639.14 62.6446 663.244C62.6446 686.201 57.7345 704.311 47.9141 717.575C38.2213 730.966 25.4038 737.662 9.46169 737.662C-2.52679 737.662 -12.4747 734.537 -20.382 728.288C-28.1617 722.039 -33.6458 713.175 -36.8343 701.697C-44.1039 729.117 -59.9185 742.827 -84.278 742.827C-102.388 742.827 -116.354 735.876 -126.174 721.975C-135.994 708.073 -140.904 688.624 -140.904 663.627C-140.904 637.737 -135.038 617.139 -123.304 601.835C-111.571 586.658 -95.1187 579.07 -73.9475 579.07V602.6C-89.252 602.6 -101.113 608.084 -109.53 619.053C-117.948 630.021 -122.157 644.879 -122.157 663.627C-122.157 681.865 -118.777 695.766 -112.017 705.331C-105.258 714.897 -95.6926 719.679 -83.3215 719.679C-70.8229 719.679 -61.4489 714.769 -55.1996 704.949C-48.9503 695.128 -45.8256 682.566 -45.8256 667.262Z" fill="black"/>
<path d="M240.347 495.442V464.45H258.33V495.442C258.33 510.364 261.264 522.033 267.13 530.451C272.997 538.996 281.988 543.268 294.104 543.268C305.2 543.268 313.873 538.677 320.122 529.494C326.499 520.311 329.687 507.621 329.687 491.424C329.687 474.589 325.67 460.943 317.635 450.485C309.728 440.154 299.27 434.989 286.261 434.989V411.459C304.116 411.459 318.974 418.728 330.835 433.267C342.823 447.934 348.818 467.32 348.818 491.424C348.818 514.381 343.908 532.491 334.087 545.755C324.394 559.146 311.577 565.842 295.635 565.842C283.646 565.842 273.698 562.717 265.791 556.468C258.011 550.219 252.527 541.355 249.339 529.877C242.069 557.297 226.255 571.007 201.895 571.007C183.785 571.007 169.819 564.057 159.999 550.155C150.179 536.254 145.269 516.804 145.269 491.807C145.269 465.917 151.135 445.32 162.869 430.015C174.602 414.838 191.054 407.25 212.226 407.25V430.78C196.921 430.78 185.06 436.265 176.643 447.233C168.225 458.201 164.017 473.059 164.017 491.807C164.017 510.045 167.396 523.946 174.156 533.512C180.915 543.077 190.48 547.859 202.852 547.859C215.35 547.859 224.724 542.949 230.974 533.129C237.223 523.309 240.347 510.746 240.347 495.442Z" fill="black"/>
<path d="M197.351 429.736V301.321H302.189V429.736H286.765V315.492H212.776V429.736H197.351Z" fill="black"/>
<path d="M561.914 495.442V464.45H579.897V495.442C579.897 510.364 582.83 522.033 588.697 530.451C594.563 538.996 603.555 543.268 615.671 543.268C626.766 543.268 635.439 538.677 641.688 529.494C648.065 520.311 651.254 507.621 651.254 491.424C651.254 474.589 647.236 460.943 639.201 450.485C631.294 440.154 620.836 434.989 607.827 434.989V411.459C625.682 411.459 640.54 418.728 652.401 433.267C664.39 447.934 670.384 467.32 670.384 491.424C670.384 514.381 665.474 532.491 655.654 545.755C645.961 559.146 633.143 565.842 617.201 565.842C605.213 565.842 595.265 562.717 587.358 556.468C579.578 550.219 574.094 541.355 570.905 529.877C563.636 557.297 547.821 571.007 523.461 571.007C505.351 571.007 491.386 564.057 481.566 550.155C471.745 536.254 466.835 516.804 466.835 491.807C466.835 465.917 472.702 445.32 484.435 430.015C496.169 414.838 512.621 407.25 533.792 407.25V430.78C518.488 430.78 506.627 436.265 498.209 447.233C489.792 458.201 485.583 473.059 485.583 491.807C485.583 510.045 488.963 523.946 495.722 533.512C502.482 543.077 512.047 547.859 524.418 547.859C536.917 547.859 546.291 542.949 552.54 533.129C558.789 523.309 561.914 510.746 561.914 495.442Z" fill="black"/>
<path d="M518.917 429.736V301.321H623.756V429.736H608.331V315.492H534.342V429.736H518.917Z" fill="black"/>
<path d="M404.457 349.073V318.082H422.44V349.073C422.44 363.995 425.373 375.665 431.24 384.082C437.107 392.627 446.098 396.899 458.214 396.899C469.31 396.899 477.982 392.308 484.232 383.125C490.609 373.943 493.797 361.253 493.797 345.056C493.797 328.221 489.78 314.574 481.745 304.116C473.837 293.786 463.379 288.62 450.371 288.62V265.09C468.226 265.09 483.084 272.36 494.945 286.899C506.933 301.566 512.928 320.951 512.928 345.056C512.928 368.012 508.017 386.123 498.197 399.386C488.504 412.778 475.687 419.474 459.745 419.474C447.756 419.474 437.808 416.349 429.901 410.1C422.121 403.85 416.637 394.986 413.449 383.508C406.179 410.929 390.365 424.639 366.005 424.639C347.895 424.639 333.929 417.688 324.109 403.786C314.289 389.885 309.378 370.436 309.378 345.438C309.378 319.548 315.245 298.951 326.979 283.647C338.712 268.47 355.164 260.881 376.335 260.881V284.412C361.031 284.412 349.17 289.896 340.753 300.864C332.335 311.832 328.126 326.69 328.126 345.438C328.126 363.676 331.506 377.578 338.266 387.143C345.025 396.708 354.59 401.491 366.961 401.491C379.46 401.491 388.834 396.581 395.083 386.76C401.333 376.94 404.457 364.378 404.457 349.073Z" fill="black"/>
<path d="M361.461 283.368V154.953H466.299V283.368H450.875V169.124H376.885V283.368H361.461Z" fill="black"/>
<path d="M557.479 780.416V749.425H575.461V780.416C575.461 795.338 578.395 807.008 584.261 815.425C590.128 823.97 599.119 828.243 611.235 828.243C622.331 828.243 631.004 823.651 637.253 814.469C643.63 805.286 646.818 792.596 646.818 776.399C646.818 759.564 642.801 745.918 634.766 735.46C626.859 725.129 616.401 719.964 603.392 719.964V696.433C621.247 696.433 636.105 703.703 647.966 718.242C659.955 732.909 665.949 752.294 665.949 776.399C665.949 799.356 661.039 817.466 651.218 830.73C641.525 844.121 628.708 850.817 612.766 850.817C600.777 850.817 590.83 847.692 582.922 841.443C575.142 835.193 569.658 826.33 566.47 814.851C559.2 842.272 543.386 855.982 519.026 855.982C500.916 855.982 486.951 849.031 477.13 835.13C467.31 821.228 462.4 801.779 462.4 776.782C462.4 750.891 468.266 730.294 480 714.99C491.733 699.813 508.186 692.224 529.357 692.224V715.755C514.052 715.755 502.191 721.239 493.774 732.207C485.356 743.176 481.148 758.034 481.148 776.782C481.148 795.019 484.527 808.921 491.287 818.486C498.046 828.051 507.612 832.834 519.983 832.834C532.481 832.834 541.855 827.924 548.105 818.104C554.354 808.283 557.479 795.721 557.479 780.416Z" fill="black"/>
<path d="M514.482 714.711V586.296H619.321V714.711H603.896V600.467H529.907V714.711H514.482Z" fill="black"/>
<path d="M400.022 634.048V603.056H418.005V634.048C418.005 648.969 420.938 660.639 426.805 669.057C432.671 677.602 441.663 681.874 453.779 681.874C464.874 681.874 473.547 677.283 479.796 668.1C486.173 658.917 489.361 646.227 489.361 630.03C489.361 613.195 485.344 599.549 477.309 589.091C469.402 578.76 458.944 573.595 445.935 573.595V550.065C463.79 550.065 478.648 557.334 490.509 571.873C502.498 586.54 508.492 605.926 508.492 630.03C508.492 652.987 503.582 671.097 493.762 684.361C484.069 697.752 471.251 704.448 455.309 704.448C443.321 704.448 433.373 701.323 425.465 695.074C417.686 688.825 412.202 679.961 409.013 668.483C401.744 695.903 385.929 709.613 361.569 709.613C343.459 709.613 329.494 702.663 319.673 688.761C309.853 674.86 304.943 655.41 304.943 630.413C304.943 604.523 310.81 583.926 322.543 568.621C334.276 553.444 350.729 545.856 371.9 545.856V569.386C356.595 569.386 344.734 574.87 336.317 585.839C327.9 596.807 323.691 611.665 323.691 630.413C323.691 648.651 327.071 662.552 333.83 672.117C340.59 681.683 350.155 686.465 362.526 686.465C375.025 686.465 384.399 681.555 390.648 671.735C396.897 661.915 400.022 649.352 400.022 634.048Z" fill="black"/>
<path d="M357.025 568.342V439.927H461.864V568.342H446.439V454.098H372.45V568.342H357.025Z" fill="black"/>
<path d="M879.045 780.416V749.425H897.028V780.416C897.028 795.338 899.961 807.008 905.828 815.425C911.695 823.97 920.686 828.243 932.802 828.243C943.898 828.243 952.57 823.651 958.82 814.469C965.197 805.286 968.385 792.596 968.385 776.399C968.385 759.564 964.368 745.918 956.333 735.46C948.425 725.129 937.967 719.964 924.959 719.964V696.433C942.814 696.433 957.672 703.703 969.533 718.242C981.521 732.909 987.515 752.294 987.515 776.399C987.515 799.356 982.605 817.466 972.785 830.73C963.092 844.121 950.275 850.817 934.333 850.817C922.344 850.817 912.396 847.692 904.489 841.443C896.709 835.193 891.225 826.33 888.037 814.851C880.767 842.272 864.952 855.982 840.593 855.982C822.483 855.982 808.517 849.031 798.697 835.13C788.877 821.228 783.966 801.779 783.966 776.782C783.966 750.891 789.833 730.294 801.566 714.99C813.3 699.813 829.752 692.224 850.923 692.224V715.755C835.619 715.755 823.758 721.239 815.34 732.207C806.923 743.176 802.714 758.034 802.714 776.782C802.714 795.019 806.094 808.921 812.854 818.486C819.613 828.051 829.178 832.834 841.549 832.834C854.048 832.834 863.422 827.924 869.671 818.104C875.921 808.283 879.045 795.721 879.045 780.416Z" fill="black"/>
<path d="M836.049 714.711V586.296H940.887V714.711H925.463V600.467H851.474V714.711H836.049Z" fill="black"/>
<path d="M721.588 634.048V603.056H739.571V634.048C739.571 648.969 742.505 660.639 748.371 669.057C754.238 677.602 763.229 681.874 775.345 681.874C786.441 681.874 795.114 677.283 801.363 668.1C807.74 658.917 810.928 646.227 810.928 630.03C810.928 613.195 806.911 599.549 798.876 589.091C790.969 578.76 780.511 573.595 767.502 573.595V550.065C785.357 550.065 800.215 557.334 812.076 571.873C824.064 586.54 830.059 605.926 830.059 630.03C830.059 652.987 825.149 671.097 815.328 684.361C805.635 697.752 792.818 704.448 776.876 704.448C764.887 704.448 754.939 701.323 747.032 695.074C739.252 688.825 733.768 679.961 730.58 668.483C723.31 695.903 707.496 709.613 683.136 709.613C665.026 709.613 651.06 702.663 641.24 688.761C631.42 674.86 626.51 655.41 626.51 630.413C626.51 604.523 632.376 583.926 644.11 568.621C655.843 553.444 672.295 545.856 693.467 545.856V569.386C678.162 569.386 666.301 574.87 657.884 585.839C649.466 596.807 645.258 611.665 645.258 630.413C645.258 648.651 648.637 662.552 655.397 672.117C662.156 681.683 671.721 686.465 684.093 686.465C696.591 686.465 705.965 681.555 712.214 671.735C718.464 661.915 721.588 649.352 721.588 634.048Z" fill="black"/>
<path d="M678.592 568.342V439.927H783.431V568.342H768.006V454.098H694.017V568.342H678.592Z" fill="black"/>
<path d="M240.347 495.442V464.45H258.33V495.442C258.33 510.364 261.264 522.033 267.13 530.451C272.997 538.996 281.988 543.268 294.104 543.268C305.2 543.268 313.873 538.677 320.122 529.494C326.499 520.311 329.687 507.621 329.687 491.424C329.687 474.589 325.67 460.943 317.635 450.485C309.728 440.154 299.27 434.989 286.261 434.989V411.459C304.116 411.459 318.974 418.728 330.835 433.267C342.823 447.934 348.818 467.32 348.818 491.424C348.818 514.381 343.908 532.491 334.087 545.755C324.394 559.146 311.577 565.842 295.635 565.842C283.646 565.842 273.698 562.717 265.791 556.468C258.011 550.219 252.527 541.355 249.339 529.877C242.069 557.297 226.255 571.007 201.895 571.007C183.785 571.007 169.819 564.057 159.999 550.155C150.179 536.254 145.269 516.804 145.269 491.807C145.269 465.917 151.135 445.32 162.869 430.015C174.602 414.838 191.054 407.25 212.226 407.25V430.78C196.921 430.78 185.06 436.265 176.643 447.233C168.225 458.201 164.017 473.059 164.017 491.807C164.017 510.045 167.396 523.946 174.156 533.512C180.915 543.077 190.48 547.859 202.852 547.859C215.35 547.859 224.724 542.949 230.974 533.129C237.223 523.309 240.347 510.746 240.347 495.442Z" fill="black"/>
<path d="M197.351 429.736V301.321H302.189V429.736H286.765V315.492H212.776V429.736H197.351Z" fill="black"/>
<path d="M561.914 495.442V464.45H579.897V495.442C579.897 510.364 582.83 522.033 588.697 530.451C594.563 538.996 603.555 543.268 615.671 543.268C626.766 543.268 635.439 538.677 641.688 529.494C648.065 520.311 651.254 507.621 651.254 491.424C651.254 474.589 647.236 460.943 639.201 450.485C631.294 440.154 620.836 434.989 607.827 434.989V411.459C625.682 411.459 640.54 418.728 652.401 433.267C664.39 447.934 670.384 467.32 670.384 491.424C670.384 514.381 665.474 532.491 655.654 545.755C645.961 559.146 633.143 565.842 617.201 565.842C605.213 565.842 595.265 562.717 587.358 556.468C579.578 550.219 574.094 541.355 570.905 529.877C563.636 557.297 547.821 571.007 523.461 571.007C505.351 571.007 491.386 564.057 481.566 550.155C471.745 536.254 466.835 516.804 466.835 491.807C466.835 465.917 472.702 445.32 484.435 430.015C496.169 414.838 512.621 407.25 533.792 407.25V430.78C518.488 430.78 506.627 436.265 498.209 447.233C489.792 458.201 485.583 473.059 485.583 491.807C485.583 510.045 488.963 523.946 495.722 533.512C502.482 543.077 512.047 547.859 524.418 547.859C536.917 547.859 546.291 542.949 552.54 533.129C558.789 523.309 561.914 510.746 561.914 495.442Z" fill="black"/>
<path d="M518.917 429.736V301.321H623.756V429.736H608.331V315.492H534.342V429.736H518.917Z" fill="black"/>
<path d="M404.457 349.073V318.082H422.44V349.073C422.44 363.995 425.373 375.665 431.24 384.082C437.107 392.627 446.098 396.899 458.214 396.899C469.31 396.899 477.982 392.308 484.232 383.125C490.609 373.943 493.797 361.253 493.797 345.056C493.797 328.221 489.78 314.574 481.745 304.116C473.837 293.786 463.379 288.62 450.371 288.62V265.09C468.226 265.09 483.084 272.36 494.945 286.899C506.933 301.566 512.928 320.951 512.928 345.056C512.928 368.012 508.017 386.123 498.197 399.386C488.504 412.778 475.687 419.474 459.745 419.474C447.756 419.474 437.808 416.349 429.901 410.1C422.121 403.85 416.637 394.986 413.449 383.508C406.179 410.929 390.365 424.639 366.005 424.639C347.895 424.639 333.929 417.688 324.109 403.786C314.289 389.885 309.378 370.436 309.378 345.438C309.378 319.548 315.245 298.951 326.979 283.647C338.712 268.47 355.164 260.881 376.335 260.881V284.412C361.031 284.412 349.17 289.896 340.753 300.864C332.335 311.832 328.126 326.69 328.126 345.438C328.126 363.676 331.506 377.578 338.266 387.143C345.025 396.708 354.59 401.491 366.961 401.491C379.46 401.491 388.834 396.581 395.083 386.76C401.333 376.94 404.457 364.378 404.457 349.073Z" fill="black"/>
<path d="M361.461 283.368V154.953H466.299V283.368H450.875V169.124H376.885V283.368H361.461Z" fill="black"/>
<path d="M890.134 495.442V464.45H908.116V495.442C908.116 510.364 911.05 522.033 916.916 530.451C922.783 538.996 931.774 543.268 943.89 543.268C954.986 543.268 963.659 538.677 969.908 529.494C976.285 520.311 979.473 507.621 979.473 491.424C979.473 474.589 975.456 460.943 967.421 450.485C959.514 440.154 949.056 434.989 936.047 434.989V411.459C953.902 411.459 968.76 418.728 980.621 433.267C992.61 447.934 998.604 467.32 998.604 491.424C998.604 514.381 993.694 532.491 983.873 545.755C974.181 559.146 961.363 565.842 945.421 565.842C933.432 565.842 923.485 562.717 915.577 556.468C907.797 550.219 902.313 541.355 899.125 529.877C891.855 557.297 876.041 571.007 851.681 571.007C833.571 571.007 819.606 564.057 809.785 550.155C799.965 536.254 795.055 516.804 795.055 491.807C795.055 465.917 800.921 445.32 812.655 430.015C824.388 414.838 840.841 407.25 862.012 407.25V430.78C846.707 430.78 834.846 436.265 826.429 447.233C818.011 458.201 813.803 473.059 813.803 491.807C813.803 510.045 817.182 523.946 823.942 533.512C830.701 543.077 840.267 547.859 852.638 547.859C865.136 547.859 874.51 542.949 880.76 533.129C887.009 523.309 890.134 510.746 890.134 495.442Z" fill="black"/>
<path d="M847.137 429.736V301.321H951.976V429.736H936.551V315.492H862.562V429.736H847.137Z" fill="black"/>
<path d="M732.677 349.073V318.082H750.66V349.073C750.66 363.995 753.593 375.665 759.46 384.082C765.327 392.627 774.318 396.899 786.434 396.899C797.53 396.899 806.202 392.308 812.451 383.125C818.828 373.943 822.017 361.253 822.017 345.056C822.017 328.221 817.999 314.574 809.965 304.116C802.057 293.786 791.599 288.62 778.59 288.62V265.09C796.446 265.09 811.304 272.36 823.165 286.899C835.153 301.566 841.147 320.951 841.147 345.056C841.147 368.012 836.237 386.123 826.417 399.386C816.724 412.778 803.907 419.474 787.964 419.474C775.976 419.474 766.028 416.349 758.121 410.1C750.341 403.85 744.857 394.986 741.668 383.508C734.399 410.929 718.584 424.639 694.225 424.639C676.114 424.639 662.149 417.688 652.329 403.786C642.508 389.885 637.598 370.436 637.598 345.438C637.598 319.548 643.465 298.951 655.198 283.647C666.932 268.47 683.384 260.881 704.555 260.881V284.412C689.251 284.412 677.39 289.896 668.972 300.864C660.555 311.832 656.346 326.69 656.346 345.438C656.346 363.676 659.726 377.578 666.485 387.143C673.245 396.708 682.81 401.491 695.181 401.491C707.68 401.491 717.054 396.581 723.303 386.76C729.552 376.94 732.677 364.378 732.677 349.073Z" fill="black"/>
<path d="M689.68 283.368V154.953H794.519V283.368H779.094V169.124H705.105V283.368H689.68Z" fill="black"/>
<path d="M896.787 202.705V171.713H914.77V202.705C914.77 217.627 917.703 229.296 923.57 237.714C929.436 246.259 938.428 250.531 950.544 250.531C961.64 250.531 970.312 245.94 976.561 236.757C982.938 227.575 986.127 214.885 986.127 198.687C986.127 181.853 982.109 168.206 974.074 157.748C966.167 147.418 955.709 142.252 942.7 142.252V118.722C960.555 118.722 975.414 125.991 987.274 140.531C999.263 155.197 1005.26 174.583 1005.26 198.687C1005.26 221.644 1000.35 239.754 990.527 253.018C980.834 266.41 968.016 273.105 952.074 273.105C940.086 273.105 930.138 269.981 922.231 263.731C914.451 257.482 908.967 248.618 905.778 237.14C898.509 264.56 882.694 278.271 858.335 278.271C840.224 278.271 826.259 271.32 816.439 257.418C806.618 243.517 801.708 224.067 801.708 199.07C801.708 173.18 807.575 152.583 819.308 137.278C831.042 122.101 847.494 114.513 868.665 114.513V138.044C853.361 138.044 841.5 143.528 833.082 154.496C824.665 165.464 820.456 180.322 820.456 199.07C820.456 217.308 823.836 231.209 830.595 240.775C837.355 250.34 846.92 255.123 859.291 255.123C871.79 255.123 881.164 250.212 887.413 240.392C893.662 230.572 896.787 218.009 896.787 202.705Z" fill="black"/>
<path d="M853.79 137V8.58511H958.629V137H943.204V22.7559H869.215V137H853.79Z" fill="black"/>
<g filter="url(#filter1_d_200_38)">
<path d="M526.125 420.565V315.224V306.353H619.823V315.224V425.554C630.357 425.554 643.663 433.316 653.643 450.504C664 468.341 669.721 510.936 649.762 539.766C633.794 562.83 589.33 556.399 584.34 536.439L571.338 482.807C572.527 490.48 568.404 517.297 563.826 533.113C557.727 554.181 539.431 567.487 510.601 561.389C481.771 555.29 467.356 491.531 479.554 456.602C489.311 428.659 517.254 416.868 526.125 420.565Z" fill="black"/>
<path d="M526.125 420.565V315.224V306.353H619.823V315.224V425.554C630.357 425.554 643.663 433.316 653.643 450.504C664 468.341 669.721 510.936 649.762 539.766C633.794 562.83 589.33 556.399 584.34 536.439L571.338 482.807C572.527 490.48 568.404 517.297 563.826 533.113C557.727 554.181 539.431 567.487 510.601 561.389C481.771 555.29 467.356 491.531 479.554 456.602C489.311 428.659 517.254 416.868 526.125 420.565Z" stroke="black" stroke-width="1.10885"/>
</g>
</g>
<defs>
<filter id="filter0_d_200_38" x="470.211" y="305.799" width="197.86" height="266.501" filterUnits="userSpaceOnUse" color-interpolation-filters="sRGB">
<feFlood flood-opacity="0" result="BackgroundImageFix"/>
<feColorMatrix in="SourceAlpha" type="matrix" values="0 0 0 0 0 0 0 0 0 0 0 0 0 0 0 0 0 0 127 0" result="hardAlpha"/>
<feOffset dy="4.4354"/>
<feGaussianBlur stdDeviation="2.2177"/>
<feComposite in2="hardAlpha" operator="out"/>
<feColorMatrix type="matrix" values="0 0 0 0 0 0 0 0 0 0 0 0 0 0 0 0 0 0 0.25 0"/>
<feBlend mode="normal" in2="BackgroundImageFix" result="effect1_dropShadow_200_38"/>
<feBlend mode="normal" in="SourceGraphic" in2="effect1_dropShadow_200_38" result="shape"/>
</filter>
<filter id="filter1_d_200_38" x="470.211" y="305.799" width="197.86" height="266.501" filterUnits="userSpaceOnUse" color-interpolation-filters="sRGB">
<feFlood flood-opacity="0" result="BackgroundImageFix"/>
<feColorMatrix in="SourceAlpha" type="matrix" values="0 0 0 0 0 0 0 0 0 0 0 0 0 0 0 0 0 0 127 0" result="hardAlpha"/>
<feOffset dy="4.4354"/>
<feGaussianBlur stdDeviation="2.2177"/>
<feComposite in2="hardAlpha" operator="out"/>
<feColorMatrix type="matrix" values="0 0 0 0 0 0 0 0 0 0 0 0 0 0 0 0 0 0 0.25 0"/>
<feBlend mode="normal" in2="BackgroundImageFix" result="effect1_dropShadow_200_38"/>
<feBlend mode="normal" in="SourceGraphic" in2="effect1_dropShadow_200_38" result="shape"/>
</filter>
<clipPath id="clip0_200_38">
<rect width="1280" height="884" fill="white"/>
</clipPath>
</defs>
</svg>
