<svg width="471" height="768" viewBox="0 0 471 768" fill="none" xmlns="http://www.w3.org/2000/svg">
<g clip-path="url(#clip0_173_20)">
<rect width="471" height="768" fill="white"/>
<path d="M589 730.992H164.5L164.5 524.546H216.457L216.457 674.613H333.084V615.747C333.084 579.451 342.941 550.617 362.655 529.244C382.369 507.688 411.757 496.909 450.816 496.909H472.373C512.17 496.909 541.557 507.503 560.534 528.691C579.511 549.88 589 578.898 589 615.747V730.992ZM385.317 622.933V674.613H537.043V621.827C537.043 597.875 531.331 580.464 519.908 569.594C508.301 558.723 490.245 553.288 465.74 553.288H456.067C431.563 553.288 413.691 558.815 402.452 569.87C391.029 580.741 385.317 598.428 385.317 622.933ZM449.711 163.334C492.087 163.334 526.817 176.968 553.901 204.236C580.985 231.32 594.527 265.406 594.527 306.492C594.527 333.208 588.447 357.528 576.287 379.453C564.127 401.194 547.084 418.329 525.159 430.857C503.234 443.386 478.453 449.65 450.816 449.65L350.771 449.65C323.319 449.65 300.104 447.071 281.127 441.912C262.15 436.753 246.673 428.646 234.697 417.592C222.537 406.353 213.233 393.087 206.784 377.795C200.336 362.503 195.453 343.433 192.137 320.587L182.74 252.048C181.451 243.02 179.332 236.848 176.384 233.531C173.252 230.031 169.29 228.096 164.5 227.728V171.072C187.531 171.625 203.744 177.797 213.141 189.589C222.353 201.381 228.986 222.753 233.039 253.706L242.159 315.612C246.397 346.381 255.793 367.477 270.349 378.9C284.904 390.139 310.33 395.759 346.626 395.759H357.404C341.191 387.099 328.386 374.202 318.989 357.067C309.593 339.748 304.895 319.297 304.895 295.714C304.895 278.026 308.487 261.168 315.673 245.139C322.858 228.925 332.715 214.83 345.244 202.854C357.773 190.694 373.157 181.114 391.397 174.112C409.453 166.927 428.891 163.334 449.711 163.334ZM542.57 306.492C542.57 281.066 533.911 260.339 516.592 244.31C499.273 228.096 476.979 219.989 449.711 219.989C422.627 219.989 400.425 228.096 383.106 244.31C365.603 260.339 356.852 281.066 356.852 306.492C356.852 331.734 365.511 352.461 382.83 368.675C399.965 384.888 422.258 392.995 449.711 392.995C477.348 392.995 499.733 384.888 516.868 368.675C534.003 352.461 542.57 331.734 542.57 306.492Z" fill="black"/>
</g>
<defs>
<clipPath id="clip0_173_20">
<rect width="471" height="768" fill="white"/>
</clipPath>
</defs>
</svg>
