<svg width="1279" height="539" viewBox="0 0 1279 539" fill="none" xmlns="http://www.w3.org/2000/svg">
<g clip-path="url(#clip0_179_45)">
<rect width="1279" height="539" fill="white"/>
<path d="M456.377 353.203L470.586 218.01L374.242 207.884L360.033 343.077L320.407 338.912L351.766 40.5553L391.391 44.7201L378.101 171.172L474.445 181.298L487.736 54.8463L527.555 59.0315L496.197 357.388L456.377 353.203ZM606.09 259.157L594.678 367.739L555.052 363.574L586.411 65.2174L626.036 69.3823L612.276 200.302C619.56 189.546 628.767 181.676 639.895 176.692C651.154 171.722 663.387 169.931 676.596 171.319C699.257 173.701 716.747 182.937 729.065 199.026C741.383 215.115 746.058 237.275 743.091 265.505L730.842 382.05L691.022 377.865L702.435 269.283C704.476 249.859 701.812 234.719 694.443 223.863C687.088 212.878 675.77 206.582 660.489 204.976C645.209 203.37 632.829 207.175 623.35 216.391C613.885 225.478 608.132 239.733 606.09 259.157ZM994.357 208.645L962.998 507.002L923.178 502.816L936.775 373.451C927.746 383.369 917.286 390.714 905.394 395.487C893.645 400.143 881.166 401.778 867.957 400.389C840.504 397.504 818.727 385.461 802.626 364.261C786.668 342.945 780.274 317.201 783.445 287.028C786.617 256.856 798.216 233.068 818.244 215.665C838.415 198.147 862.227 190.83 889.68 193.715C902.888 195.104 914.748 199.361 925.258 206.489C935.912 213.5 944.623 222.795 951.393 234.373L954.537 204.46L994.357 208.645ZM835.275 341.376C845.377 354.876 859.17 362.545 876.651 364.382C894.133 366.22 909.219 361.586 921.907 350.482C934.609 339.248 942.002 323.725 944.084 303.912C946.166 284.099 942.156 267.443 932.054 253.943C921.965 240.314 908.179 232.581 890.698 230.743C873.216 228.906 858.124 233.604 845.422 244.838C832.733 255.942 825.347 271.401 823.265 291.213C821.183 311.026 825.186 327.747 835.275 341.376Z" fill="black"/>
<path d="M0 4.99988L1286.81 136.5" stroke="black"/>
<path d="M-45.6797 404L1286.01 540.331" stroke="black"/>
<path d="M-45.6797 404L1286.01 540.331" stroke="black"/>
<path d="M456.377 353.203L470.586 218.01L374.242 207.884L360.033 343.077L320.407 338.912L351.766 40.5553L391.391 44.7201L378.101 171.172L474.445 181.298L487.736 54.8463L527.555 59.0315L496.197 357.388L456.377 353.203ZM606.09 259.157L594.678 367.739L555.052 363.574L586.411 65.2174L626.036 69.3823L612.276 200.302C619.56 189.546 628.767 181.676 639.895 176.692C651.154 171.722 663.387 169.931 676.596 171.319C699.257 173.701 716.747 182.937 729.065 199.026C741.383 215.115 746.058 237.275 743.091 265.505L730.842 382.05L691.022 377.865L702.435 269.283C704.476 249.859 701.812 234.719 694.443 223.863C687.088 212.878 675.77 206.582 660.489 204.976C645.209 203.37 632.829 207.175 623.35 216.391C613.885 225.478 608.132 239.733 606.09 259.157ZM994.357 208.645L962.998 507.002L923.178 502.816L936.775 373.451C927.746 383.369 917.286 390.714 905.394 395.487C893.645 400.143 881.166 401.778 867.957 400.389C840.504 397.504 818.727 385.461 802.626 364.261C786.668 342.945 780.274 317.201 783.445 287.028C786.617 256.856 798.216 233.068 818.244 215.665C838.415 198.147 862.227 190.83 889.68 193.715C902.888 195.104 914.748 199.361 925.258 206.489C935.912 213.5 944.623 222.795 951.393 234.373L954.537 204.46L994.357 208.645ZM835.275 341.376C845.377 354.876 859.17 362.545 876.651 364.382C894.133 366.22 909.219 361.586 921.907 350.482C934.609 339.248 942.002 323.725 944.084 303.912C946.166 284.099 942.156 267.443 932.054 253.943C921.965 240.314 908.179 232.581 890.698 230.743C873.216 228.906 858.124 233.604 845.422 244.838C832.733 255.942 825.347 271.401 823.265 291.213C821.183 311.026 825.186 327.747 835.275 341.376Z" fill="black"/>
<path d="M-5.68945 106L1286 238.236" stroke="black"/>
<path d="M-37 302L1291.47 439.071" stroke="black"/>
<path d="M-94.5 399L1279 539H-1468L-94.5 399Z" fill="black"/>
<path d="M0 4.99988L1286.81 136.5" stroke="black"/>
<path d="M-37 302L1291.47 439.071" stroke="black"/>
<path d="M-5.68945 106L1286 238.236" stroke="black"/>
</g>
<defs>
<clipPath id="clip0_179_45">
<rect width="1279" height="539" fill="white"/>
</clipPath>
</defs>
</svg>
