<svg width="612" height="305" viewBox="0 0 612 305" fill="none" xmlns="http://www.w3.org/2000/svg">
<path d="M198.958 299V249.785C189.611 268.288 176.258 282.118 158.899 291.274C141.541 300.24 121.798 304.723 99.6699 304.723C81.5482 304.723 65.1432 301.957 50.4551 296.425C35.9577 290.893 23.9401 281.737 14.4023 268.956C4.86458 255.985 0.0957031 240.247 0.0957031 221.744C0.0957031 204.576 3.72005 190.174 10.9688 178.538C18.2174 166.711 27.6598 157.937 39.2959 152.214C50.932 146.491 63.7126 142.008 77.6377 138.766C91.7536 135.332 105.774 132.757 119.699 131.04C133.815 129.132 146.691 127.034 158.327 124.745C169.963 122.265 179.406 118.355 186.654 113.014C193.903 107.673 197.527 100.519 197.527 91.5537C197.527 77.6286 191.614 66.7555 179.787 58.9346C167.96 50.9229 152.795 46.917 134.292 46.917C114.644 46.917 99.0023 51.8766 87.3662 61.7959C75.7301 71.7152 69.9121 85.9264 69.9121 104.43H8.96582C8.96582 89.7415 11.2549 76.484 15.833 64.6572C20.4111 52.8304 26.6107 43.0065 34.4316 35.1855C42.2526 27.1738 51.5042 20.5928 62.1865 15.4424C73.0596 10.1012 84.4095 6.28613 96.2363 3.99707C108.254 1.51725 120.939 0.277344 134.292 0.277344C150.697 0.277344 165.957 1.99414 180.073 5.42773C194.189 8.86133 207.065 14.2025 218.701 21.4512C230.337 28.5091 239.493 38.2376 246.17 50.6367C252.846 63.0358 256.185 77.4378 256.185 93.8428V299H198.958ZM59.8975 218.024C59.8975 230.233 64.571 239.58 73.918 246.065C83.4557 252.36 95.9502 255.508 111.401 255.508C135.627 255.508 156.229 248.736 173.206 235.192C190.374 221.458 198.958 202.478 198.958 178.252V157.078C190.374 161.275 179.31 164.899 165.767 167.951C152.223 170.812 139.729 173.197 128.283 175.104C116.838 176.821 105.679 179.206 94.8057 182.258C84.1234 185.119 75.6348 189.507 69.3398 195.42C63.0449 201.143 59.8975 208.677 59.8975 218.024ZM552.618 299V254.936C540.982 270.768 526.866 283.072 510.271 291.847C493.866 300.431 475.935 304.723 456.478 304.723C416.037 304.723 382.465 290.511 355.759 262.089C329.244 233.476 315.986 196.946 315.986 152.5C315.986 108.054 329.244 71.6198 355.759 43.1973C382.465 14.584 416.037 0.277344 456.478 0.277344C475.935 0.277344 493.866 4.66471 510.271 13.4395C526.866 22.0234 540.982 34.2318 552.618 50.0645V6H611.275V299H552.618ZM527.438 81.5391C510.652 63.2266 489.383 54.0703 463.631 54.0703C437.879 54.0703 416.61 63.2266 399.823 81.5391C383.037 99.6608 374.644 123.314 374.644 152.5C374.644 181.686 383.037 205.435 399.823 223.747C416.61 241.869 437.879 250.93 463.631 250.93C489.383 250.93 510.652 241.869 527.438 223.747C544.225 205.435 552.618 181.686 552.618 152.5C552.618 123.314 544.225 99.6608 527.438 81.5391Z" fill="black"/>
</svg>
