<svg width="1280" height="1162" viewBox="0 0 1280 1162" fill="none" xmlns="http://www.w3.org/2000/svg">
<g clip-path="url(#clip0_199_37)">
<rect width="1282" height="1162" fill="black"/>
<path d="M653.835 575.209L645.253 564.976L637.02 575.209H633.601L643.602 562.929L634.113 551.393H637.508L645.509 560.976L653.3 551.393H656.696L647.16 562.976L657.208 575.209H653.835Z" fill="white"/>
<path d="M706.451 513.333L696.796 501.821L687.534 513.333H683.687L694.939 499.518L684.263 486.54H688.083L697.084 497.32L705.849 486.54H709.67L698.942 499.57L710.245 513.333H706.451Z" fill="white"/>
<path d="M604.042 513.333L594.387 501.821L585.124 513.333H581.278L592.529 499.518L581.853 486.54H585.674L594.674 497.32L603.44 486.54H607.26L596.532 499.57L607.836 513.333H604.042Z" fill="white"/>
<path d="M737.633 478.846L726.905 466.054L716.614 478.846H712.34L724.841 463.496L712.979 449.076H717.224L727.225 461.053L736.964 449.076H741.209L729.289 463.554L741.848 478.846H737.633Z" fill="white"/>
<path d="M737.633 671.757L726.905 658.965L716.614 671.757H712.34L724.841 656.407L712.979 641.987H717.224L727.225 653.964L736.964 641.987H741.209L729.289 656.465L741.848 671.757H737.633Z" fill="white"/>
<path d="M771.196 714.672L759.395 700.601L748.074 714.672H743.373L757.125 697.787L744.077 681.925H748.746L759.747 695.101L770.46 681.925H775.129L762.017 697.851L775.833 714.672H771.196Z" fill="white"/>
<path d="M771.196 440.786L759.395 426.715L748.074 440.786H743.373L757.125 423.901L744.077 408.039H748.746L759.747 421.215L770.46 408.039H775.129L762.017 423.965L775.833 440.786H771.196Z" fill="white"/>
<path d="M543.751 711.1L531.951 697.029L520.63 711.1H515.929L529.68 694.214L516.632 678.352H521.301L532.303 691.528L543.016 678.352H547.685L534.573 694.278L548.388 711.1H543.751Z" fill="white"/>
<path d="M543.751 440.786L531.951 426.715L520.63 440.786H515.929L529.68 423.901L516.632 408.039H521.301L532.303 421.215L543.016 408.039H547.685L534.573 423.965L548.388 440.786H543.751Z" fill="white"/>
<path d="M805.61 756.587L795.318 743.365L785.759 756.587H777.386L791.411 738.097L778.119 720.863H786.457L795.911 733.004L804.912 720.863H813.25L799.958 738.306L813.983 756.587H805.61Z" fill="white"/>
<path d="M808.331 400.535L795.458 385.185L783.108 400.535H777.979L792.981 382.115L778.747 364.811H783.84L795.841 379.184L807.529 364.811H812.622L798.318 382.184L813.39 400.535H808.331Z" fill="white"/>
<path d="M805.61 400.535L795.318 387.313L785.759 400.535H777.386L791.411 382.045L778.119 364.811H786.457L795.911 376.951L804.912 364.811H813.25L799.958 382.254L813.983 400.535H805.61Z" fill="white"/>
<path d="M844.617 358.712L834.866 345.56L826.06 358.712H815.213L829.84 338.757L815.969 320.011H826.816L835.736 331.992L843.861 320.011H854.671L840.838 338.984L855.464 358.712H844.617Z" fill="white"/>
<path d="M881.779 309.889L875.58 296.434L869.874 309.889H855.701L866.774 289.858L856.305 271.187H870.251L875.996 283.886L881.401 271.187H895.347L884.878 290.085L895.952 309.889H881.779Z" fill="white"/>
<path d="M423.317 306.316L417.119 292.861L411.412 306.316H397.239L408.313 286.285L397.844 267.615H411.79L417.535 280.314L422.939 267.615H436.885L426.416 286.512L437.49 306.316H423.317Z" fill="white"/>
<path d="M423.317 850.516L417.119 837.061L411.412 850.516H397.239L408.313 830.485L397.844 811.815H411.79L417.535 824.514L422.939 811.815H436.885L426.416 830.712L437.49 850.516H423.317Z" fill="white"/>
<path d="M880.588 850.516L874.39 837.061L868.683 850.516H854.51L865.584 830.485L855.115 811.815H869.061L874.806 824.514L880.21 811.815H894.156L883.687 830.712L894.761 850.516H880.588Z" fill="white"/>
<path d="M467.13 355.139L457.38 341.987L448.574 355.139H437.727L452.353 335.184L438.482 316.438H449.329L458.249 328.419L466.375 316.438H477.184L463.351 335.411L477.977 355.139H467.13Z" fill="white"/>
<path d="M467.13 801.693L457.38 788.541L448.574 801.693H437.727L452.353 781.738L438.482 762.992H449.329L458.249 774.973L466.375 762.992H477.184L463.351 781.965L477.977 801.693H467.13Z" fill="white"/>
<path d="M843.426 801.693L833.675 788.541L824.869 801.693H814.022L828.649 781.738L814.778 762.992H825.625L834.545 774.973L842.671 762.992H853.48L839.647 781.965L854.273 801.693H843.426Z" fill="white"/>
<path d="M506.717 396.962L496.425 383.74L486.866 396.962H478.493L492.518 378.472L479.226 361.238H487.564L497.018 373.379L506.019 361.238H514.357L501.065 378.682L515.09 396.962H506.717Z" fill="white"/>
<path d="M506.717 753.015L496.425 739.793L486.866 753.015H478.493L492.518 734.525L479.226 717.29H487.564L497.018 729.431L506.019 717.29H514.357L501.065 734.734L515.09 753.015H506.717Z" fill="white"/>
<path d="M574.492 671.757L563.764 658.965L553.473 671.757H549.199L561.7 656.407L549.839 641.987H554.083L564.084 653.964L573.823 641.987H578.068L566.148 656.465L578.708 671.757H574.492Z" fill="white"/>
<path d="M575.682 478.846L564.955 466.054L554.663 478.846H550.389L562.891 463.496L551.029 449.076H555.274L565.275 461.053L575.014 449.076H579.258L567.339 463.554L579.898 478.846H575.682Z" fill="white"/>
<path d="M602.851 635.987L593.196 624.474L583.934 635.987H580.087L591.338 622.172L580.663 609.194H584.483L593.484 619.974L602.249 609.194H606.069L595.342 622.224L606.645 635.987H602.851Z" fill="white"/>
<path d="M706.451 635.987L696.796 624.474L687.534 635.987H683.687L694.939 622.172L684.263 609.194H688.083L697.084 619.974L705.849 609.194H709.67L698.942 622.224L710.245 635.987H706.451Z" fill="white"/>
<path d="M628.829 545.439L620.246 535.206L612.013 545.439H608.594L618.595 533.159L609.106 521.623H612.501L620.502 531.205L628.294 521.623H631.689L622.154 533.205L632.201 545.439H628.829Z" fill="white"/>
<path d="M678.842 604.98L670.26 594.746L662.027 604.98H658.608L668.609 592.699L659.119 581.163H662.515L670.516 590.746L678.307 581.163H681.703L672.167 592.746L682.215 604.98H678.842Z" fill="white"/>
<path d="M628.829 604.98L620.246 594.746L612.013 604.98H608.594L618.595 592.699L609.106 581.163H612.501L620.502 590.746L628.294 581.163H631.689L622.154 592.746L632.201 604.98H628.829Z" fill="white"/>
<path d="M678.842 545.439L670.26 535.206L662.027 545.439H658.608L668.609 533.159L659.119 521.623H662.515L670.516 531.205L678.307 521.623H681.703L672.167 533.205L682.215 545.439H678.842Z" fill="white"/>
<path d="M372.352 558L171.009 317.916L-22.149 558H-102.359L132.269 269.9L-90.3547 -0.740356H-10.6905L177.011 224.065L359.802 -0.740356H439.467L215.752 270.991L451.471 558H372.352Z" fill="white"/>
<path d="M383.377 1170.07L177.489 924.565L-20.0303 1170.07H-102.051L137.873 875.465L-89.7757 598.715H-8.31308L183.626 828.596L370.544 598.715H452.007L223.242 876.581L464.282 1170.07H383.377Z" fill="white"/>
<path d="M1304.76 558L1103.41 317.916L910.255 558H830.045L1064.67 269.9L842.049 -0.740356H921.713L1109.42 224.065L1292.21 -0.740356H1371.87L1148.16 270.991L1383.87 558H1304.76Z" fill="white"/>
<path d="M1301.93 1162.5L1097.05 918.194L900.5 1162.5H818.881L1057.63 869.333L831.096 593.937H912.16L1103.16 822.694L1289.16 593.937H1370.23L1142.58 870.444L1382.44 1162.5H1301.93Z" fill="white"/>
</g>
<defs>
<clipPath id="clip0_199_37">
<rect width="1282" height="1162" fill="white"/>
</clipPath>
</defs>
</svg>
